<?xml version="1.0" encoding="utf-8" standalone="no"?>
<!DOCTYPE svg PUBLIC "-//W3C//DTD SVG 1.1//EN"
  "http://www.w3.org/Graphics/SVG/1.1/DTD/svg11.dtd">
<!-- Created with matplotlib (https://matplotlib.org/) -->
<svg height="345.6pt" version="1.1" viewBox="0 0 460.8 345.6" width="460.8pt" xmlns="http://www.w3.org/2000/svg" xmlns:xlink="http://www.w3.org/1999/xlink">
 <defs>
  <style type="text/css">
*{stroke-linecap:butt;stroke-linejoin:round;}
  </style>
 </defs>
 <g id="figure_1">
  <g id="patch_1">
   <path d="M 0 345.6 
L 460.8 345.6 
L 460.8 0 
L 0 0 
z
" style="fill:#ffffff;"/>
  </g>
  <g id="axes_1">
   <g id="patch_2">
    <path clip-path="url(#p1db657df85)" d="M 415.884884 165.676703 
Q 361.219641 88.010837 283.486437 35.41118 
" style="fill:none;stroke:#000000;stroke-linecap:round;"/>
    <path clip-path="url(#p1db657df85)" d="M 285.678421 39.309283 
L 283.486437 35.41118 
L 287.920109 35.996454 
L 285.678421 39.309283 
z
" style="stroke:#000000;stroke-linecap:round;"/>
   </g>
   <g id="patch_3">
    <path clip-path="url(#p1db657df85)" d="M 280.278805 37.113384 
Q 334.944047 114.77925 412.677252 167.378907 
" style="fill:none;stroke:#000000;stroke-linecap:round;"/>
    <path clip-path="url(#p1db657df85)" d="M 410.485268 163.480804 
L 412.677252 167.378907 
L 408.243579 166.793633 
L 410.485268 163.480804 
z
" style="stroke:#000000;stroke-linecap:round;"/>
   </g>
   <g id="patch_4">
    <path clip-path="url(#p1db657df85)" d="M 266.694662 30.311578 
Q 152.583976 35.326726 48.925628 80.572679 
" style="fill:none;stroke:#000000;stroke-linecap:round;"/>
    <path clip-path="url(#p1db657df85)" d="M 53.391699 80.805501 
L 48.925628 80.572679 
L 51.791528 77.139515 
L 53.391699 80.805501 
z
" style="stroke:#000000;stroke-linecap:round;"/>
   </g>
   <g id="patch_5">
    <path clip-path="url(#p1db657df85)" d="M 268.126438 34.761955 
Q 135.721191 123.171147 45.52823 253.008822 
" style="fill:none;stroke:#000000;stroke-linecap:round;"/>
    <path clip-path="url(#p1db657df85)" d="M 49.452864 250.864703 
L 45.52823 253.008822 
L 46.167715 248.582643 
L 49.452864 250.864703 
z
" style="stroke:#000000;stroke-linecap:round;"/>
   </g>
   <g id="patch_6">
    <path clip-path="url(#p1db657df85)" d="M 44.890789 91.673616 
Q 135.721735 222.429405 267.197296 310.217624 
" style="fill:none;stroke:#000000;stroke-linecap:round;"/>
    <path clip-path="url(#p1db657df85)" d="M 264.981313 306.333114 
L 267.197296 310.217624 
L 262.760098 309.659704 
L 264.981313 306.333114 
z
" style="stroke:#000000;stroke-linecap:round;"/>
   </g>
   <g id="patch_7">
    <path clip-path="url(#p1db657df85)" d="M 267.435742 312.090975 
Q 162.752687 266.39789 49.758932 261.43196 
" style="fill:none;stroke:#000000;stroke-linecap:round;"/>
    <path clip-path="url(#p1db657df85)" d="M 53.667262 263.605656 
L 49.758932 261.43196 
L 53.842887 259.609514 
L 53.667262 263.605656 
z
" style="stroke:#000000;stroke-linecap:round;"/>
   </g>
   <g id="patch_8">
    <path clip-path="url(#p1db657df85)" d="M 270.446485 308.474932 
Q 179.615538 177.719144 48.139978 89.930925 
" style="fill:none;stroke:#000000;stroke-linecap:round;"/>
    <path clip-path="url(#p1db657df85)" d="M 50.355961 93.815435 
L 48.139978 89.930925 
L 52.577176 90.488844 
L 50.355961 93.815435 
z
" style="stroke:#000000;stroke-linecap:round;"/>
   </g>
   <g id="patch_9">
    <path clip-path="url(#p1db657df85)" d="M 282.563289 310.813506 
Q 361.222017 257.586846 415.243315 180.83483 
" style="fill:none;stroke:#000000;stroke-linecap:round;"/>
    <path clip-path="url(#p1db657df85)" d="M 411.305532 182.954705 
L 415.243315 180.83483 
L 414.576545 185.256981 
L 411.305532 182.954705 
z
" style="stroke:#000000;stroke-linecap:round;"/>
   </g>
   <g id="text_1">
    <g id="patch_10">
     <path clip-path="url(#p1db657df85)" d="M 296.76474 61.999304 
L 301.13767 66.292485 
Q 303.278422 68.394194 305.380132 66.253443 
L 312.160335 59.347291 
Q 314.262045 57.206539 312.121294 55.10483 
L 307.748363 50.811649 
Q 305.607612 48.70994 303.505902 50.850691 
L 296.725699 57.756843 
Q 294.623989 59.897595 296.76474 61.999304 
z
" style="fill:#ffffff;stroke:#ffffff;stroke-linejoin:miter;"/>
    </g>
    <g clip-path="url(#p1db657df85)">
     <!-- a -->
     <defs>
      <path d="M 34.28125 27.484375 
Q 23.390625 27.484375 19.1875 25 
Q 14.984375 22.515625 14.984375 16.5 
Q 14.984375 11.71875 18.140625 8.90625 
Q 21.296875 6.109375 26.703125 6.109375 
Q 34.1875 6.109375 38.703125 11.40625 
Q 43.21875 16.703125 43.21875 25.484375 
L 43.21875 27.484375 
z
M 52.203125 31.203125 
L 52.203125 0 
L 43.21875 0 
L 43.21875 8.296875 
Q 40.140625 3.328125 35.546875 0.953125 
Q 30.953125 -1.421875 24.3125 -1.421875 
Q 15.921875 -1.421875 10.953125 3.296875 
Q 6 8.015625 6 15.921875 
Q 6 25.140625 12.171875 29.828125 
Q 18.359375 34.515625 30.609375 34.515625 
L 43.21875 34.515625 
L 43.21875 35.40625 
Q 43.21875 41.609375 39.140625 45 
Q 35.0625 48.390625 27.6875 48.390625 
Q 23 48.390625 18.546875 47.265625 
Q 14.109375 46.140625 10.015625 43.890625 
L 10.015625 52.203125 
Q 14.9375 54.109375 19.578125 55.046875 
Q 24.21875 56 28.609375 56 
Q 40.484375 56 46.34375 49.84375 
Q 52.203125 43.703125 52.203125 31.203125 
z
" id="DejaVuSans-97"/>
     </defs>
     <g transform="translate(300.323417 58.374522)rotate(-315.527251)scale(0.1 -0.1)">
      <use xlink:href="#DejaVuSans-97"/>
     </g>
    </g>
   </g>
   <g id="text_2">
    <g id="patch_11">
     <path clip-path="url(#p1db657df85)" d="M 383.963789 147.608085 
L 388.493931 152.05561 
Q 390.634682 154.15732 392.736392 152.016569 
L 399.516595 145.110416 
Q 401.618305 142.969665 399.477554 140.867955 
L 394.947412 136.42043 
Q 392.806661 134.318721 390.704951 136.459472 
L 383.924748 143.365624 
Q 381.823038 145.506375 383.963789 147.608085 
z
" style="fill:#ffffff;stroke:#ffffff;stroke-linejoin:miter;"/>
    </g>
    <g clip-path="url(#p1db657df85)">
     <!-- b -->
     <defs>
      <path d="M 48.6875 27.296875 
Q 48.6875 37.203125 44.609375 42.84375 
Q 40.53125 48.484375 33.40625 48.484375 
Q 26.265625 48.484375 22.1875 42.84375 
Q 18.109375 37.203125 18.109375 27.296875 
Q 18.109375 17.390625 22.1875 11.75 
Q 26.265625 6.109375 33.40625 6.109375 
Q 40.53125 6.109375 44.609375 11.75 
Q 48.6875 17.390625 48.6875 27.296875 
z
M 18.109375 46.390625 
Q 20.953125 51.265625 25.265625 53.625 
Q 29.59375 56 35.59375 56 
Q 45.5625 56 51.78125 48.09375 
Q 58.015625 40.1875 58.015625 27.296875 
Q 58.015625 14.40625 51.78125 6.484375 
Q 45.5625 -1.421875 35.59375 -1.421875 
Q 29.59375 -1.421875 25.265625 0.953125 
Q 20.953125 3.328125 18.109375 8.203125 
L 18.109375 0 
L 9.078125 0 
L 9.078125 75.984375 
L 18.109375 75.984375 
z
" id="DejaVuSans-98"/>
     </defs>
     <g transform="translate(387.522466 143.983303)rotate(-315.527251)scale(0.1 -0.1)">
      <use xlink:href="#DejaVuSans-98"/>
     </g>
    </g>
   </g>
   <g id="text_3">
    <g id="patch_12">
     <path clip-path="url(#p1db657df85)" d="M 85.844461 81.957368 
L 91.81435 80.57377 
Q 94.736886 79.896435 94.059551 76.973899 
L 91.874439 67.545676 
Q 91.197104 64.62314 88.274568 65.300475 
L 82.304679 66.684073 
Q 79.382143 67.361408 80.059478 70.283944 
L 82.24459 79.712167 
Q 82.921925 82.634703 85.844461 81.957368 
z
" style="fill:#ffffff;stroke:#ffffff;stroke-linejoin:miter;"/>
    </g>
    <g clip-path="url(#p1db657df85)">
     <!-- a -->
     <g transform="translate(84.697577 77.008845)rotate(-13.048654)scale(0.1 -0.1)">
      <use xlink:href="#DejaVuSans-97"/>
     </g>
    </g>
   </g>
   <g id="text_4">
    <g id="patch_13">
     <path clip-path="url(#p1db657df85)" d="M 90.286276 222.66473 
L 94.816417 218.217205 
Q 96.957168 216.115495 94.855458 213.974744 
L 88.075254 207.068592 
Q 85.973544 204.927841 83.832793 207.029551 
L 79.302652 211.477076 
Q 77.161901 213.578786 79.263611 215.719537 
L 86.043815 222.625689 
Q 88.145525 224.76644 90.286276 222.66473 
z
" style="fill:#ffffff;stroke:#ffffff;stroke-linejoin:miter;"/>
    </g>
    <g clip-path="url(#p1db657df85)">
     <!-- b -->
     <g transform="translate(86.727599 219.039948)rotate(-44.472754)scale(0.1 -0.1)">
      <use xlink:href="#DejaVuSans-98"/>
     </g>
    </g>
   </g>
   <g id="text_5">
    <g id="patch_14">
     <path clip-path="url(#p1db657df85)" d="M 220.520871 272.765726 
L 225.051013 277.21325 
Q 227.191764 279.31496 229.293474 277.174208 
L 236.073677 270.268055 
Q 238.175386 268.127304 236.034635 266.025594 
L 231.504493 261.57807 
Q 229.363741 259.47636 227.262032 261.617112 
L 220.481829 268.523265 
Q 218.380119 270.664017 220.520871 272.765726 
z
" style="fill:#ffffff;stroke:#ffffff;stroke-linejoin:miter;"/>
    </g>
    <g clip-path="url(#p1db657df85)">
     <!-- b -->
     <g transform="translate(224.079547 269.140943)rotate(-315.527258)scale(0.1 -0.1)">
      <use xlink:href="#DejaVuSans-98"/>
     </g>
    </g>
   </g>
   <g id="text_6">
    <g id="patch_15">
     <path clip-path="url(#p1db657df85)" d="M 82.304707 278.915956 
L 88.274596 280.299554 
Q 91.197132 280.976888 91.874467 278.054352 
L 94.059577 268.626129 
Q 94.736911 265.703593 91.814375 265.026258 
L 85.844486 263.642661 
Q 82.92195 262.965326 82.244615 265.887862 
L 80.059505 275.316085 
Q 79.382171 278.238622 82.304707 278.915956 
z
" style="fill:#ffffff;stroke:#ffffff;stroke-linejoin:miter;"/>
    </g>
    <g clip-path="url(#p1db657df85)">
     <!-- a -->
     <g transform="translate(83.45159 273.967433)rotate(-346.951354)scale(0.1 -0.1)">
      <use xlink:href="#DejaVuSans-97"/>
     </g>
    </g>
   </g>
   <g id="text_7">
    <g id="patch_16">
     <path clip-path="url(#p1db657df85)" d="M 79.302639 134.122955 
L 83.832781 138.570479 
Q 85.973532 140.672188 88.075242 138.531437 
L 94.855445 131.625283 
Q 96.957154 129.484532 94.816403 127.382822 
L 90.286261 122.935298 
Q 88.145509 120.833589 86.0438 122.97434 
L 79.263597 129.880494 
Q 77.161887 132.021245 79.302639 134.122955 
z
" style="fill:#ffffff;stroke:#ffffff;stroke-linejoin:miter;"/>
    </g>
    <g clip-path="url(#p1db657df85)">
     <!-- b -->
     <g transform="translate(82.861315 130.498172)rotate(-315.527258)scale(0.1 -0.1)">
      <use xlink:href="#DejaVuSans-98"/>
     </g>
    </g>
   </g>
   <g id="text_8">
    <g id="patch_17">
     <path clip-path="url(#p1db657df85)" d="M 395.250692 208.881834 
L 399.174288 205.029794 
Q 401.315039 202.928084 399.213329 200.787333 
L 392.433124 193.881181 
Q 390.331414 191.74043 388.190663 193.84214 
L 384.267068 197.69418 
Q 382.126317 199.79589 384.228027 201.936641 
L 391.008231 208.842793 
Q 393.109941 210.983544 395.250692 208.881834 
z
" style="fill:#ffffff;stroke:#ffffff;stroke-linejoin:miter;"/>
    </g>
    <g clip-path="url(#p1db657df85)">
     <!-- c -->
     <defs>
      <path d="M 48.78125 52.59375 
L 48.78125 44.1875 
Q 44.96875 46.296875 41.140625 47.34375 
Q 37.3125 48.390625 33.40625 48.390625 
Q 24.65625 48.390625 19.8125 42.84375 
Q 14.984375 37.3125 14.984375 27.296875 
Q 14.984375 17.28125 19.8125 11.734375 
Q 24.65625 6.203125 33.40625 6.203125 
Q 37.3125 6.203125 41.140625 7.25 
Q 44.96875 8.296875 48.78125 10.40625 
L 48.78125 2.09375 
Q 45.015625 0.34375 40.984375 -0.53125 
Q 36.96875 -1.421875 32.421875 -1.421875 
Q 20.0625 -1.421875 12.78125 6.34375 
Q 5.515625 14.109375 5.515625 27.296875 
Q 5.515625 40.671875 12.859375 48.328125 
Q 20.21875 56 33.015625 56 
Q 37.15625 56 41.109375 55.140625 
Q 45.0625 54.296875 48.78125 52.59375 
z
" id="DejaVuSans-99"/>
     </defs>
     <g transform="translate(391.692016 205.257052)rotate(-44.472754)scale(0.1 -0.1)">
      <use xlink:href="#DejaVuSans-99"/>
     </g>
    </g>
   </g>
   <g id="PathCollection_1">
    <defs>
     <path d="M 0 8.660254 
C 2.296726 8.660254 4.499694 7.747755 6.123724 6.123724 
C 7.747755 4.499694 8.660254 2.296726 8.660254 0 
C 8.660254 -2.296726 7.747755 -4.499694 6.123724 -6.123724 
C 4.499694 -7.747755 2.296726 -8.660254 0 -8.660254 
C -2.296726 -8.660254 -4.499694 -7.747755 -6.123724 -6.123724 
C -7.747755 -4.499694 -8.660254 -2.296726 -8.660254 0 
C -8.660254 2.296726 -7.747755 4.499694 -6.123724 6.123724 
C -4.499694 7.747755 -2.296726 8.660254 0 8.660254 
z
" id="mc342035241" style="stroke:#1f78b4;"/>
    </defs>
    <g clip-path="url(#p1db657df85)">
     <use style="fill:#1f78b4;stroke:#1f78b4;" x="420.813223" xlink:href="#mc342035241" y="172.800004"/>
     <use style="fill:#1f78b4;stroke:#1f78b4;" x="275.350465" xlink:href="#mc342035241" y="29.990083"/>
     <use style="fill:#1f78b4;stroke:#1f78b4;" x="39.986777" xlink:href="#mc342035241" y="84.538631"/>
     <use style="fill:#1f78b4;stroke:#1f78b4;" x="39.986802" xlink:href="#mc342035241" y="261.061405"/>
     <use style="fill:#1f78b4;stroke:#1f78b4;" x="275.350497" xlink:href="#mc342035241" y="315.609917"/>
    </g>
   </g>
   <g id="text_9">
    <g clip-path="url(#p1db657df85)">
     <!-- S -->
     <defs>
      <path d="M 59.90625 70.609375 
L 59.90625 55.171875 
Q 53.90625 57.859375 48.1875 59.21875 
Q 42.484375 60.59375 37.40625 60.59375 
Q 30.671875 60.59375 27.4375 58.734375 
Q 24.21875 56.890625 24.21875 52.984375 
Q 24.21875 50.046875 26.390625 48.40625 
Q 28.5625 46.78125 34.28125 45.609375 
L 42.28125 44 
Q 54.4375 41.546875 59.5625 36.5625 
Q 64.703125 31.59375 64.703125 22.40625 
Q 64.703125 10.359375 57.546875 4.46875 
Q 50.390625 -1.421875 35.6875 -1.421875 
Q 28.765625 -1.421875 21.78125 -0.09375 
Q 14.796875 1.21875 7.8125 3.8125 
L 7.8125 19.671875 
Q 14.796875 15.96875 21.3125 14.078125 
Q 27.828125 12.203125 33.890625 12.203125 
Q 40.046875 12.203125 43.3125 14.25 
Q 46.578125 16.3125 46.578125 20.125 
Q 46.578125 23.53125 44.359375 25.390625 
Q 42.140625 27.25 35.5 28.71875 
L 28.21875 30.328125 
Q 17.28125 32.671875 12.21875 37.796875 
Q 7.171875 42.921875 7.171875 51.609375 
Q 7.171875 62.5 14.203125 68.359375 
Q 21.234375 74.21875 34.421875 74.21875 
Q 40.4375 74.21875 46.78125 73.3125 
Q 53.125 72.40625 59.90625 70.609375 
z
" id="DejaVuSans-Bold-83"/>
     </defs>
     <g transform="translate(416.492286 176.111254)scale(0.12 -0.12)">
      <use xlink:href="#DejaVuSans-Bold-83"/>
     </g>
    </g>
   </g>
   <g id="text_10">
    <g clip-path="url(#p1db657df85)">
     <!-- B -->
     <defs>
      <path d="M 38.375 44.671875 
Q 42.828125 44.671875 45.109375 46.625 
Q 47.40625 48.578125 47.40625 52.390625 
Q 47.40625 56.15625 45.109375 58.125 
Q 42.828125 60.109375 38.375 60.109375 
L 27.984375 60.109375 
L 27.984375 44.671875 
z
M 39.015625 12.796875 
Q 44.671875 12.796875 47.53125 15.1875 
Q 50.390625 17.578125 50.390625 22.40625 
Q 50.390625 27.15625 47.5625 29.515625 
Q 44.734375 31.890625 39.015625 31.890625 
L 27.984375 31.890625 
L 27.984375 12.796875 
z
M 56.5 39.015625 
Q 62.546875 37.25 65.859375 32.515625 
Q 69.1875 27.78125 69.1875 20.90625 
Q 69.1875 10.359375 62.0625 5.171875 
Q 54.9375 0 40.375 0 
L 9.1875 0 
L 9.1875 72.90625 
L 37.40625 72.90625 
Q 52.59375 72.90625 59.40625 68.3125 
Q 66.21875 63.71875 66.21875 53.609375 
Q 66.21875 48.296875 63.71875 44.5625 
Q 61.234375 40.828125 56.5 39.015625 
z
" id="DejaVuSans-Bold-66"/>
     </defs>
     <g transform="translate(270.77734 33.301333)scale(0.12 -0.12)">
      <use xlink:href="#DejaVuSans-Bold-66"/>
     </g>
    </g>
   </g>
   <g id="text_11">
    <g clip-path="url(#p1db657df85)">
     <!-- C -->
     <defs>
      <path d="M 67 4 
Q 61.8125 1.3125 56.203125 -0.046875 
Q 50.59375 -1.421875 44.484375 -1.421875 
Q 26.265625 -1.421875 15.625 8.765625 
Q 4.984375 18.953125 4.984375 36.375 
Q 4.984375 53.859375 15.625 64.03125 
Q 26.265625 74.21875 44.484375 74.21875 
Q 50.59375 74.21875 56.203125 72.84375 
Q 61.8125 71.484375 67 68.796875 
L 67 53.71875 
Q 61.765625 57.28125 56.6875 58.9375 
Q 51.609375 60.59375 46 60.59375 
Q 35.9375 60.59375 30.171875 54.140625 
Q 24.421875 47.703125 24.421875 36.375 
Q 24.421875 25.09375 30.171875 18.640625 
Q 35.9375 12.203125 46 12.203125 
Q 51.609375 12.203125 56.6875 13.859375 
Q 61.765625 15.53125 67 19.09375 
z
" id="DejaVuSans-Bold-67"/>
     </defs>
     <g transform="translate(35.583339 87.849881)scale(0.12 -0.12)">
      <use xlink:href="#DejaVuSans-Bold-67"/>
     </g>
    </g>
   </g>
   <g id="text_12">
    <g clip-path="url(#p1db657df85)">
     <!-- $ -->
     <defs>
      <path d="M 38.8125 -14.703125 
L 30.90625 -14.703125 
L 30.859375 0 
Q 24.75 0.25 19.03125 1.359375 
Q 13.328125 2.484375 7.90625 4.5 
L 7.90625 17.28125 
Q 13.53125 14.40625 19.265625 12.859375 
Q 25 11.328125 30.90625 11.140625 
L 30.90625 26.3125 
L 29.296875 26.609375 
Q 17.625 28.65625 12.71875 33.046875 
Q 7.8125 37.453125 7.8125 45.703125 
Q 7.8125 54.4375 13.796875 59.34375 
Q 19.78125 64.265625 30.859375 64.703125 
L 30.90625 75.984375 
L 38.8125 75.984375 
L 38.8125 64.890625 
Q 43.703125 64.5 48.578125 63.671875 
Q 53.46875 62.84375 58.40625 61.53125 
L 58.40625 49.125 
Q 53.515625 51.171875 48.625 52.3125 
Q 43.75 53.46875 38.8125 53.71875 
L 38.8125 39.703125 
L 40.375 39.40625 
Q 52.78125 37.453125 57.78125 32.890625 
Q 62.796875 28.328125 62.796875 19.390625 
Q 62.796875 10.40625 56.828125 5.59375 
Q 50.875 0.78125 38.8125 0.09375 
z
M 30.90625 40.828125 
L 30.90625 53.5625 
Q 27.4375 53.375 25.359375 51.6875 
Q 23.296875 50 23.296875 47.40625 
Q 23.296875 44.53125 25.1875 42.890625 
Q 27.09375 41.265625 30.90625 40.828125 
z
M 38.8125 24.90625 
L 38.8125 11.328125 
Q 43.0625 11.375 45.1875 12.984375 
Q 47.3125 14.59375 47.3125 17.828125 
Q 47.3125 21.140625 45.359375 22.78125 
Q 43.40625 24.421875 38.8125 24.90625 
z
" id="DejaVuSans-Bold-36"/>
     </defs>
     <g transform="translate(35.812114 264.372655)scale(0.12 -0.12)">
      <use xlink:href="#DejaVuSans-Bold-36"/>
     </g>
    </g>
   </g>
   <g id="text_13">
    <g clip-path="url(#p1db657df85)">
     <!-- D -->
     <defs>
      <path d="M 27.984375 58.6875 
L 27.984375 14.203125 
L 34.71875 14.203125 
Q 46.234375 14.203125 52.3125 19.921875 
Q 58.40625 25.640625 58.40625 36.53125 
Q 58.40625 47.359375 52.34375 53.015625 
Q 46.296875 58.6875 34.71875 58.6875 
z
M 9.1875 72.90625 
L 29 72.90625 
Q 45.609375 72.90625 53.734375 70.53125 
Q 61.859375 68.171875 67.671875 62.5 
Q 72.796875 57.5625 75.28125 51.109375 
Q 77.78125 44.671875 77.78125 36.53125 
Q 77.78125 28.265625 75.28125 21.796875 
Q 72.796875 15.328125 67.671875 10.40625 
Q 61.8125 4.734375 53.609375 2.359375 
Q 45.40625 0 29 0 
L 9.1875 0 
z
" id="DejaVuSans-Bold-68"/>
     </defs>
     <g transform="translate(270.369559 318.921167)scale(0.12 -0.12)">
      <use xlink:href="#DejaVuSans-Bold-68"/>
     </g>
    </g>
   </g>
  </g>
 </g>
 <defs>
  <clipPath id="p1db657df85">
   <rect height="345.6" width="460.8" x="0" y="0"/>
  </clipPath>
 </defs>
</svg>
